<?xml version="1.0" encoding="UTF-8" standalone="no"?>
<!DOCTYPE svg PUBLIC "-//W3C//DTD SVG 1.1//EN" "http://www.w3.org/Graphics/SVG/1.1/DTD/svg11.dtd">
<svg version="1.1" xmlns="http://www.w3.org/2000/svg" xmlns:xlink="http://www.w3.org/1999/xlink" preserveAspectRatio="xMidYMid meet" viewBox="0 0 651 522" width="651" height="522"><defs><path d="M5 238.63C5 109.6 148.49 5 325.5 5C502.51 5 646 109.59 646 238.63C646 367.67 502.52 472.27 325.52 472.27C282.51 472.27 241.5 466.1 204.03 454.92C196.12 459.06 156.59 479.75 85.42 517L103.86 407.38C37.95 339.11 5 282.86 5 238.63Z" id="dM11NdThX"></path></defs><g><g><g><g><filter id="shadow8280266" x="-5" y="-5" width="663" height="534" filterUnits="userSpaceOnUse" primitiveUnits="userSpaceOnUse"><feFlood></feFlood><feComposite in2="SourceAlpha" operator="in"></feComposite><feGaussianBlur stdDeviation="1"></feGaussianBlur><feOffset dx="2" dy="2" result="afterOffset"></feOffset><feFlood flood-color="#cfcfcf" flood-opacity="0.47"></feFlood><feComposite in2="afterOffset" operator="in"></feComposite><feMorphology operator="dilate" radius="1"></feMorphology><feComposite in2="SourceAlpha" operator="out"></feComposite></filter><path d="M5 238.63C5 109.6 148.49 5 325.5 5C502.51 5 646 109.59 646 238.63C646 367.67 502.52 472.27 325.52 472.27C282.51 472.27 241.5 466.1 204.03 454.92C196.12 459.06 156.59 479.75 85.42 517L103.86 407.38C37.95 339.11 5 282.86 5 238.63Z" id="c6fwtTiNb" fill="white" fill-opacity="1" filter="url(#shadow8280266)"></path></g><use xlink:href="#dM11NdThX" opacity="1" fill="#345887" fill-opacity="1"></use><g><use xlink:href="#dM11NdThX" opacity="1" fill-opacity="0" stroke="#936a5f" stroke-width="0" stroke-opacity="1"></use></g></g></g></g></svg>